<svg xmlns="http://www.w3.org/2000/svg" width="1200" height="760" viewBox="0 0 1200 760" data-model-sha256="c6a42a18801e616c658a9046b5c8d31b48d8dbbefd3051923a7f8248449a902c">
<defs><marker id="arrow" markerWidth="9" markerHeight="9" refX="8" refY="4.5" orient="auto"><path d="M0,0 L9,4.5 L0,9" fill="#60758B"/></marker></defs>
<rect width="1200" height="760" fill="#FFFFFF"/>
<text x="40" y="44" font-family="DejaVu Sans,Arial" font-size="26" font-weight="bold" fill="#12324A">C1 · System context</text>
<text x="40" y="78" font-family="DejaVu Sans,Arial" font-size="17" fill="#52677A">Scope: Architecture Loop · Loop</text>
<polyline points="460.0,220.0 740.0,220.0" fill="none" stroke="#60758B" stroke-width="2" marker-end="url(#arrow)"/>
<polyline points="940.0,300.0 940.0,465.0" fill="none" stroke="#60758B" stroke-width="2" marker-end="url(#arrow)"/>
<polyline points="772.6153846153846,300.0 427.38461538461536,465.0" fill="none" stroke="#60758B" stroke-width="2" marker-end="url(#arrow)"/>
<polyline points="260.0,465.0 260.0,300.0" fill="none" stroke="#60758B" stroke-width="2" marker-end="url(#arrow)"/>
<rect x="60" y="140" width="400" height="160" rx="10" fill="#596574"/>
<text x="76" y="165" font-family="DejaVu Sans,Arial" font-size="16" fill="#DFEDF7">PERSON · Author</text>
<text x="76" y="191" font-family="DejaVu Sans,Arial" font-size="24" font-weight="bold" fill="#FFFFFF">Architecture author</text>
<text x="76" y="218" font-family="DejaVu Sans,Arial" font-size="20" fill="#FFFFFF">Owns the decision and reviews</text>
<text x="76" y="242" font-family="DejaVu Sans,Arial" font-size="20" fill="#FFFFFF">outputs</text>
<rect x="740" y="140" width="400" height="160" rx="10" fill="#596574"/>
<text x="756" y="165" font-family="DejaVu Sans,Arial" font-size="16" fill="#DFEDF7">EXTERNAL · Host</text>
<text x="756" y="191" font-family="DejaVu Sans,Arial" font-size="24" font-weight="bold" fill="#FFFFFF">Host agent</text>
<text x="756" y="218" font-family="DejaVu Sans,Arial" font-size="20" fill="#FFFFFF">Researches, designs, writes</text>
<text x="756" y="242" font-family="DejaVu Sans,Arial" font-size="20" fill="#FFFFFF">and reviews</text>
<rect x="60" y="465" width="400" height="160" rx="10" fill="#173B59"/>
<text x="76" y="490" font-family="DejaVu Sans,Arial" font-size="16" fill="#DFEDF7">SYSTEM · Loop</text>
<text x="76" y="516" font-family="DejaVu Sans,Arial" font-size="24" font-weight="bold" fill="#FFFFFF">Architecture Loop</text>
<text x="76" y="543" font-family="DejaVu Sans,Arial" font-size="20" fill="#FFFFFF">Coordinates evidence and</text>
<text x="76" y="567" font-family="DejaVu Sans,Arial" font-size="20" fill="#FFFFFF">publication records</text>
<rect x="740" y="465" width="400" height="160" rx="10" fill="#596574"/>
<text x="756" y="490" font-family="DejaVu Sans,Arial" font-size="16" fill="#DFEDF7">EXTERNAL · Sources</text>
<text x="756" y="516" font-family="DejaVu Sans,Arial" font-size="24" font-weight="bold" fill="#FFFFFF">Primary sources</text>
<text x="756" y="543" font-family="DejaVu Sans,Arial" font-size="20" fill="#FFFFFF">Provide evidence and</text>
<text x="756" y="567" font-family="DejaVu Sans,Arial" font-size="20" fill="#FFFFFF">counterevidence</text>
<rect x="511.0" y="195" width="178" height="26" rx="4" fill="#FFFFFF" fill-opacity="0.97"/>
<text x="600" y="210" text-anchor="middle" font-family="DejaVu Sans,Arial" font-size="14" fill="#344F63">Defines the decision</text>
<rect x="835.0" y="365" width="210" height="44" rx="4" fill="#FFFFFF" fill-opacity="0.97"/>
<text x="940" y="380" text-anchor="middle" font-family="DejaVu Sans,Arial" font-size="14" fill="#344F63">Retrieves supporting and</text>
<text x="940" y="398" text-anchor="middle" font-family="DejaVu Sans,Arial" font-size="14" fill="#344F63">contrary evidence</text>
<rect x="462.0" y="390" width="266" height="26" rx="4" fill="#FFFFFF" fill-opacity="0.97"/>
<text x="595" y="405" text-anchor="middle" font-family="DejaVu Sans,Arial" font-size="14" fill="#344F63">Creates and evaluates artifacts</text>
<rect x="135.0" y="375" width="250" height="44" rx="4" fill="#FFFFFF" fill-opacity="0.97"/>
<text x="260" y="390" text-anchor="middle" font-family="DejaVu Sans,Arial" font-size="14" fill="#344F63">Provides reviewable paper and</text>
<text x="260" y="408" text-anchor="middle" font-family="DejaVu Sans,Arial" font-size="14" fill="#344F63">deck</text>
<text x="40" y="688" font-family="DejaVu Sans,Arial" font-size="14" fill="#52677A">Person = accountable author. Dark blue = kit. Gray = external systems. Arrows describe directed interactions.</text>
</svg>